<?xml version="1.0" encoding="UTF-8"?>
<svg width="260px" height="260px" viewBox="0 0 260 260" version="1.1" xmlns="http://www.w3.org/2000/svg" xmlns:xlink="http://www.w3.org/1999/xlink">
    <!-- Generator: Sketch 51.2 (57519) - http://www.bohemiancoding.com/sketch -->
    <title>safari-pinned-tab</title>
    <desc>Created with Sketch.</desc>
    <defs></defs>
    <g id="Page-1" stroke="none" stroke-width="1" fill="none" fill-rule="evenodd">
        <g id="safari-pinned-tab">
            <g id="Group" transform="translate(130.000000, 130.000000) scale(-1, 1) rotate(-180.000000) translate(-130.000000, -130.000000) ">
                <polygon id="Shape" fill="#000000" fill-rule="nonzero" points="-6.97182103e-15 130 -6.97182103e-15 0 130 0 260 0 260 130 260 260 130 260 -6.97182103e-15 260"></polygon>
                <g id="Group-2" transform="translate(129.500000, 130.500000) scale(-1, 1) rotate(180.000000) translate(-129.500000, -130.500000) translate(45.000000, 98.000000)" fill="#FFFFFF">
                    <path d="M27.1025656,39.6816262 L39.9721143,39.6816262 L36.6611536,28.4498087 C35.5592888,24.766318 34.5495441,21.0837183 33.5371164,17.4006731 C32.5260302,21.1755049 31.5158384,24.8581045 30.4121848,28.5415953 L27.1025656,39.6816262 Z M43.2870997,0 L67,65 L48.5249823,65 L44.5732049,53.5841639 L22.5139962,53.5841639 L18.8408153,65 L0,65 L23.7102172,0 L43.2870997,0 Z" id="Fill-1"></path>
                    <polyline id="Fill-4" points="169 0 169 15.0988813 155.911596 15.0988813 155.911596 65 138.175895 65 138.175895 15.0988813 125 15.0988813 125 0 169 0"></polyline>
                    <path d="M94.048118,50.6046668 C89.9811285,50.6046668 86.6842172,47.2669349 86.6842172,43.1503544 C86.6842172,39.0351106 89.9811285,35.6982698 94.048118,35.6982698 C98.1191022,35.6982698 101.414238,39.0351106 101.414238,43.1503544 C101.414238,47.2669349 98.1191022,50.6046668 94.048118,50.6046668 Z M99.9273435,0 L99.9273435,22.2796164 L82.3948593,0 L61,0 L79.7765933,26.0548937 C78.0571218,26.7923047 77.247541,27.2530196 76.5262862,27.7128433 C74.7198202,28.9087413 73.458401,30.4749044 72.9186805,31.0274057 C68.8441456,35.9246172 68.2289707,42.1090676 68.2289707,44.3208552 C68.2289707,46.4154591 68.5947023,64.9175704 92.409427,64.9977722 C92.6366778,64.9991089 92.8586024,65 93.0911793,65 L117,65 L117,0 L99.9273435,0 Z" id="Fill-5"></path>
                </g>
            </g>
        </g>
    </g>
</svg>